<svg xmlns="http://www.w3.org/2000/svg" width="1706.667" height="1040" version="1.0" viewBox="0 0 1280 780"><path d="M138.9 1.4c-9.9 2.6-17.4 8.9-22.7 18.9l-2.7 5.2v680.4l2.1 2.8c1.1 1.5 3.6 3.6 5.5 4.5 3.2 1.6.6 1.7-56.9 1.8-60 0-60.2 0-62.3 2.1C0 719-.2 719.9.5 724.9c.3 3.1 1 12.8 1.4 21.6.5 12.6 1.1 16.7 2.5 19.5 2.5 4.9 6.4 8.8 11.1 11.3l4 2.2h1241l4-2.2c4.7-2.5 8.6-6.4 11.1-11.3 1.4-2.8 2-6.9 2.5-19.5.4-8.8 1.1-18.5 1.4-21.6.7-5 .5-5.9-1.4-7.8-2.1-2.1-2.3-2.1-62.3-2.1-57.5-.1-60.1-.2-56.9-1.8 1.9-.9 4.4-3 5.5-4.5l2.1-2.8V25.5l-3.4-6.3c-4.1-7.5-9.4-12.5-17-16.1l-5.6-2.6L642 .3C249.1.2 142.5.4 138.9 1.4zM465.8 11c4.6 4.3 3.6 11.7-2 14.6-6.1 3.2-12.8-1.1-12.8-8.2 0-3.4.5-4.7 2.6-6.3 3.5-2.7 9.3-2.8 12.2-.1zM1132 357.5V680H148V35h984v322.5zM800 716c0 2.1-3 6.9-5.6 8.9l-2.7 2.1H488.3l-2.7-2.1c-2.6-2-5.6-6.8-5.6-8.9 0-.7 49-1 160-1s160 .3 160 1zm335.5 19.4c9.3 3.9 10.1 18.7 1.2 23.2-4.4 2.4-11.1 2.2-14.5-.2-8.5-6.3-7.3-18.8 2.2-23 4-1.7 6.9-1.7 11.1 0zm42.9 0c4.4 1.8 7.7 6.6 7.8 11.4.1 10.5-9.8 16.7-19.2 12-7.9-4-10.1-12.6-4.8-19.3 3.9-5 10.2-6.6 16.2-4.1zm45.1 1c3.7 2.4 5.6 6 5.7 10.5.1 5.8-2.9 10.2-8.5 12.5-4.7 1.9-4.7 1.9-9.3 0-6.1-2.5-8.9-6.3-8.9-11.9 0-10.4 12.2-16.8 21-11.1zM132.1 744c2.6 1.4 2.4 4.5-.3 6.4-3.4 2.4-76.2 2.4-79.6 0-2.6-1.8-2.8-3.1-.5-5.6 1.5-1.7 4.1-1.8 40-1.8 24.6 0 39.1.4 40.4 1z"/></svg>