<svg xmlns="http://www.w3.org/2000/svg" width="90" height="90" fill="none"><g clip-path="url(#a)"><path fill="#9D6C3E" d="M78.1 16v-.16C78.01 7.08 70.89 0 62.11 0c-8.78 0-15.9 7.08-15.99 15.84h-.01v24.31c0 8.83 7.16 15.99 16 15.99S78.1 48.98 78.1 40.15V15.99 16z"/><path fill="#D5A47D" d="M71 33.15H53v21.67h18V33.15z"/><path fill="#E3C29C" d="M76.87 22.65a2.29 2.29 0 0 0-1.17-1.89V18.2c0-1.23-.98-2.23-2.21-2.27l-3.55-1.42-2.59 1.41H50.67c-1.26 0-2.28 1.02-2.28 2.28v2.56c-.67.37-1.13 1.08-1.16 1.89v4.64c0 1.24 1 2.25 2.24 2.27.67 5.42 6.41 14.04 12.58 14.04s11.01-8.36 12.58-14.04a2.275 2.275 0 0 0 2.24-2.27v-4.64z"/><path fill="#9D6C3E" d="M61.62 4.04c-4.86 0-7.96 1.87-8.77 2.42-4.97 3.32-4.55 10.28-4.55 13.15 0 3.46 2.8 6.27 6.26 6.27-1.16 0-2.11-.95-2.11-2.11s.94-2.11 2.11-2.11h7.06c3.94 0 7.28-2.59 8.41-6.16.45.26 4.61.76 4.61 14.08 0 2.89 2.89 2.37 2.89-8.54 0-3.18-2.6-9.44-2.6-9.44s-3.44-7.56-13.31-7.56z"/><path fill="#807B76" d="M39.87 69.17c-1.26 0-2.18-.31-2.79-.94-1.4-1.45-1.3-4.53-1.24-6.56.01-.42.03-.8.03-1.12 0-2.89 1.71-5.52 4.35-6.7l.07-.03 11.54-6.36c1.57 4.13 5.57 7.01 10.17 7.01s8.6-2.88 10.16-7.01l11.54 6.36.07.03a7.352 7.352 0 0 1 4.35 6.7c0 .32.01.7.03 1.12.07 2.04.17 5.11-1.24 6.56-.61.63-1.52.94-2.79.94H39.87z"/><path fill="#807B76" d="M51.03 49.98c2.21 3.8 6.34 6.31 10.97 6.31 4.63 0 8.76-2.51 10.97-6.31l9.79 5.39.13.07.14.06c1.99.89 3.27 2.87 3.27 5.04 0 .34.01.74.03 1.18.05 1.41.14 4.34-.73 5.24-.31.32-.98.39-1.48.39H39.87c-.51 0-1.17-.07-1.48-.39-.87-.89-.77-3.83-.73-5.24.01-.44.03-.84.03-1.18 0-2.18 1.28-4.15 3.27-5.04l.14-.06.13-.07 9.79-5.39m19.95-5.23a9.045 9.045 0 0 1-8.98 7.9c-4.61 0-8.42-3.44-8.98-7.9-.04 0-.07.02-.1.03l-13.44 7.4c-3.2 1.43-5.43 4.64-5.43 8.36 0 2.92-1.05 10.44 5.82 10.44h44.25c6.87 0 5.82-7.52 5.82-10.44 0-3.72-2.23-6.93-5.43-8.36l-13.44-7.4s-.06-.02-.1-.03h.01z"/><path fill="#4A4743" d="m51.55 67.69-9.18-5.84s1.39-2.16 2.28-5.7c.14-.55 2.98-.83 2.98-4.59 0-.6.13-2.19.22-3.99l-8.38 4.61c-3.2 1.43-5.43 4.64-5.43 8.36 0 2.92-1.05 10.44 5.82 10.44h16.4c-1.61-1.79-3.45-2.73-4.72-3.3l.01.01z"/><path fill="#9D6C3E" d="M52.27 20.81c-3.36 2.61-5.03 2.63-5.03 6.49 0 3.86-.9-3.88-.9-3.88L47.83 18l4.43 2.8.01.01z"/><path fill="#6B4D3A" d="M37.07 58.68H18.95v19.14h18.12V58.68z"/><path fill="#87CBE3" d="M50.13 90c6.87 0 5.82-7.52 5.82-10.44 0-3.72-2.23-6.93-5.43-8.36l-13.44-7.4s-.06-.02-.1-.03a9.045 9.045 0 0 1-8.98 7.9c-4.61 0-8.42-3.44-8.98-7.9-.04 0-.07.02-.1.03L5.48 71.2a9.153 9.153 0 0 0-5.42 8.36C.06 82.48-.99 90 5.88 90h44.25z"/><path fill="#8D694B" d="M14.36 49.99c.52 9.83 6.42 17.6 13.64 17.6 7.22 0 13.13-7.77 13.65-17.6.02 0-.53-6.84-.53-6.84C39.43 35.32 34.2 29.6 28 29.6c-6.2 0-11.43 5.72-13.12 13.55l-.53 6.84h.01z"/><path fill="#4A4743" d="M43.98 34.02c-.04-7.57-7.17-13.69-15.97-13.69s-15.93 6.12-15.97 13.69v11.46h4.57v-9.19h11.41l1.97-5.62 3.87 1.14c.75 1.49 2.29 2.53 4.07 2.53v4.38h1.51v6.76H44V34.02h-.02z"/><path fill="#4A4743" d="M37.91 27.64c-.86 0-1.66.25-2.35.67-1.04-3.19-4.02-5.49-7.55-5.49-4.4 0-7.96 3.57-7.96 7.96 0 .49.05.96.14 1.43h-5.87v6.52h13.69a7.93 7.93 0 0 0 6.55-3.44c.84.91 2.03 1.5 3.36 1.5 2.53 0 4.57-2.04 4.57-4.57 0-2.53-2.04-4.57-4.57-4.57l-.01-.01z"/><path fill="#8D694B" d="M41.7 43.3v-4.24c0-1.25-1.03-2.28-2.29-2.28h-2.28l-3.7 2.16c-7.05-.09-16.15-.21-16.84-.21-1.26 0-2.28 1.03-2.28 2.29v2.28c-1.26 0-2.28 1.03-2.28 2.28v4.57c0 1.25 1.02 2.28 2.28 2.28h27.4c1.26 0 2.28-1.02 2.28-2.28v-4.57c0-1.25-1.02-2.28-2.28-2.28h-.01z"/></g><defs><clipPath id="a"><path fill="#fff" d="M0 0h90v90H0z"/></clipPath></defs></svg>