<svg xmlns="http://www.w3.org/2000/svg" width="1649.333" height="1706.667" version="1.0" viewBox="0 0 1237 1280"><g fill="#4caf50" stroke="#4caf50"><path stroke-width=".1" d="M106.6 1.1c-14.3 3.4-30 18.3-44.8 42.4-8.4 13.8-32.4 60.3-36.2 70.2-7.3 18.8-16.2 56.7-20.5 86.8-3.6 25.6-4.5 36.8-4.5 57v20L4.8 289c4.5 12 11.9 41 24.7 96.5 8.5 36.7 19.5 83.1 28 118 14.8 60.9 21.5 90.9 29 130.3 15.3 80.9 24.9 161.8 28.5 239.7 1.1 24.1 1.3 80.8.4 94.3-.7 9.1-.7 9.2-3.4 9.2-4.6 0-24.1 6-32.8 10-23.4 11-36.5 27-41.3 50.5-2.8 13.7-2.3 42.4.9 52.5 5.5 17.1 15.8 28 36 38.1l9.7 4.8-21.8.1c-19.6 0-22.2.2-25.6 2-4.9 2.5-8.8 7-10.1 12-.7 2.6-1 23.4-.8 61.7l.3 57.8 2.7 4.1c1.5 2.3 4.4 5.2 6.5 6.5l3.8 2.4 276.1.3 276.1.2 4.4-2.3c2.4-1.3 5.8-4.3 7.4-6.6l3-4.3.3-57.9c.2-38.5-.1-59.3-.8-61.9-1.3-4.6-5-9.4-9.4-11.8-2.6-1.4-7-1.8-27.1-2.2l-24-.5 7-3.9c33.7-19 42.5-34.3 41.2-72.1-.9-27-6.4-40-22.8-54-13.3-11.3-44.7-25.5-56.6-25.5h-5.2l-2.7-8.2c-3.5-11.1-4.4-25.5-1.9-32.9 3.8-11.8 10.2-17.7 26.7-25 15.1-6.6 20.7-10.2 28.7-18.1 19.6-19.4 31.2-47.1 35.2-83.9 1.5-13.1.6-44.7-1.6-58.9-6.8-44.2-24.5-86.9-49.7-120.2-7.6-10-11.1-14-36.8-41.4-23.9-25.5-73.7-80.4-111-122.4-13.4-15.1-25.4-28.5-26.6-29.6-3-2.9-3.8-7.9-3-17.8 2.2-27.8 18.6-62.6 37.6-79.8 11.1-10.1 24.7-16.4 37.5-17.5 3.9-.3 13.5.6 27.5 2.6 48.1 6.9 66.9 8.5 88.3 7.8 19.2-.6 24.9-2 31.2-7.8 7-6.5 13.4-20.7 17-37.6 1.4-6.8 1.3-7.6-.5-13.7-2.9-9.2-8.3-14.8-22.4-23.1l-11.5-6.8 1.6-3.1c.9-1.7 4.5-6.1 8-9.7 6.4-6.7 14.2-11.4 25.4-15.3 11.3-4 19.1-12.2 20.5-21.5 2.2-14.4-11.1-38.1-30.8-55.1-8.4-7.3-18.5-13.6-23.8-14.9-5.8-1.4-34.4-5.7-73.5-11.1-106.8-14.6-147.6-20.6-185-27-20.2-3.5-51.6-9.8-52.3-10.5-.3-.3-.4-4.2-.3-8.7.3-9.4-.3-9.3-4.3.5-2.1 5.1-3.3 6.6-4.5 6.3-.9-.2-5.3-1.4-9.8-2.5-19.3-4.9-28.2-9.5-32.3-16.7-4.2-7.5-7.8-9.8-20.7-13.3-19.9-5.4-29.5-11.1-42.4-24.9-4.1-4.4-9.4-9-11.9-10.2-9.1-4.6-19.3-6-28.4-3.9zM975 322.6c-45.2 5-76.1 19.3-105.5 48.8-28.2 28.3-43.3 59.7-48.1 100.1-3.1 25.7.8 54 11.1 79.5 8.7 21.7 20.1 38.7 37.6 56.2l11.7 11.6-4.6.7c-11.6 1.7-27.3 8.3-36.9 15.5-22.9 17.3-35.5 43.5-39.3 81.9-1.5 15.7-1.3 45.4.4 49.5 2.8 6.7 2.3 6.6 40.3 6.6 22.2 0 34.3.4 34.3 1 0 .5-.4 1-.8 1s-1.5 1.2-2.4 2.7c-1.1 2.1-1.7 6.9-2.2 18-2.5 58.4-25.3 114-69.9 171.1-18 23-45.5 52.1-60.3 63.7l-8 6.4-3.2 10.3c-4.9 16.1-6.3 24.3-6.9 38.8-.9 22.9 4.5 43.1 15.8 59.7 1.6 2.3 2.9 4.4 2.9 4.7 0 .3-3.5.6-7.7.6-8.7 0-12.8 1.7-16 6.7-1.7 2.5-1.8 6.4-1.8 57.8 0 51.5.1 55.2 1.8 57.7 1 1.5 3 3.5 4.5 4.5 2.6 1.7 12.7 1.8 254.4 1.8h251.7l2.8-2.1c6.4-4.7 6.3-3.4 6.3-62.2 0-46.7-.2-53.8-1.6-56.7-2.3-4.8-5.9-6.9-13.1-7.5l-6.2-.5 3.9-5.9c11.1-16.8 17.2-45.1 15-69.3-2-21-7.1-35.9-14.4-41.5-8.7-6.8-32.7-29.1-45.6-42.4-34.4-35.5-57.9-72-70.4-109.6-7.6-22.8-10.5-40.6-10.6-64.6 0-9 .5-20.6 1.2-25.8 1-8.3.9-9.9-.5-12.9-.9-1.9-2.1-3.5-2.7-3.5-.5 0-1-.5-1-1 0-.7 14.2-1 40.5-1 45.1 0 44.3.1 47.1-6.7 1.9-4.4 1.8-34.6-.1-52.3-4.1-38.8-18.8-67-43-82.5-10.8-6.9-27.9-12.5-38-12.5h-5.2l12.6-12.8c18.3-18.3 29.8-36.1 38.5-59.4 30.3-81.3-7.1-171.7-86.6-209.3-11.5-5.4-29.4-10.9-42.5-13-9.7-1.6-32.5-2.7-39.3-1.9z"/></g></svg>