<svg xmlns="http://www.w3.org/2000/svg" xml:space="preserve" width="800" height="800" fill="#4caf50" stroke="#4caf50" viewBox="0 0 512 512"><path d="M266.487 35.439c-4.557-1.178-9.208 1.604-10.359 6.17a8.523 8.523 0 0 0 6.178 10.368c9.131 2.313 16.23 9.412 18.517 18.526.973 3.874 4.454 6.451 8.269 6.451.691 0 1.391-.085 2.091-.256 4.574-1.152 7.339-5.786 6.195-10.359a42.585 42.585 0 0 0-30.891-30.9z"/><path d="M349.867 426.667h-1.075c5.896-7.356 9.609-16.358 9.609-25.6 0-16.657-8.235-33.604-17.775-53.24-11.665-24.013-24.892-51.243-24.892-83.294 0-43.17 4.574-68.113 6.844-77.85 10.778-3.012 18.756-12.817 18.756-24.55 0-14.114-11.486-25.6-25.6-25.6h-11.563C321.604 122.445 332.8 100.915 332.8 76.8 332.8 34.458 298.351 0 256 0s-76.8 34.458-76.8 76.8c0 24.115 11.196 45.645 28.629 59.733h-11.563c-14.114 0-25.6 11.486-25.6 25.6s11.486 25.6 25.6 25.6H281.6c4.719 0 8.533-3.823 8.533-8.533s-3.814-8.533-8.533-8.533h-85.333c-4.71 0-8.533-3.831-8.533-8.533s3.823-8.533 8.533-8.533h119.467c4.71 0 8.533 3.831 8.533 8.533s-3.823 8.533-8.533 8.533c-.119 0-.205.06-.324.068-.64.026-1.229.205-1.835.367-.478.128-.956.188-1.391.393-.521.239-.93.597-1.391.939-.435.316-.887.572-1.246.956-.341.358-.555.811-.828 1.237-.341.512-.691 1.007-.922 1.596-.043.102-.12.171-.154.282-.367 1.101-8.977 27.605-8.977 88.03 0 35.985 14.754 66.347 26.607 90.752 8.619 17.732 16.06 33.05 16.06 45.781 0 12.442-13.158 25.6-25.6 25.6H230.4c-4.719 0-8.533 3.823-8.533 8.533s3.814 8.533 8.533 8.533h119.467c12.442 0 25.6 13.158 25.6 25.6v25.6H136.533v-25.6c0-12.442 13.158-25.6 25.6-25.6h34.133c4.719 0 8.533-3.823 8.533-8.533s-3.814-8.533-8.533-8.533c-12.442 0-25.6-13.158-25.6-25.6 0-12.732 7.441-28.049 16.06-45.781 11.853-24.405 26.607-54.767 26.607-90.752 0-11.221-1.408-28.834-4.173-52.343-.555-4.685-4.787-8.081-9.481-7.475-4.676.555-8.021 4.796-7.475 9.481 2.662 22.519 4.062 39.927 4.062 50.338 0 32.051-13.227 59.281-24.892 83.294-9.54 19.635-17.775 36.582-17.775 53.24 0 9.233 3.678 18.253 9.566 25.6h-1.033c-21.931 0-42.667 20.736-42.667 42.667v34.133a8.53 8.53 0 0 0 8.533 8.533h256a8.53 8.53 0 0 0 8.533-8.533v-34.133c.002-21.934-20.734-42.67-42.664-42.67zM256 136.533c-32.93 0-59.733-26.795-59.733-59.733S223.07 17.067 256 17.067s59.733 26.795 59.733 59.733S288.93 136.533 256 136.533z"/></svg>