<svg xmlns="http://www.w3.org/2000/svg" xml:space="preserve" width="800" height="800" viewBox="0 0 512 512"><path d="M328 328c-79.403 0-144-64.596-144-144S248.596 40 328 40s144 64.596 144 144-64.597 144-144 144z" style="fill:#b3f4ff"/><path d="M165.212 359.987a14.268 14.268 0 0 1-10.12-4.193c-5.591-5.591-5.591-14.656 0-20.24l43.919-43.913c5.591-5.591 14.649-5.591 20.24 0s5.591 14.656 0 20.24l-43.919 43.912a14.265 14.265 0 0 1-10.12 4.194z" style="fill:#8b8996"/><path d="M328 0C226.539 0 144 82.543 144 184s82.539 184 184 184 184-82.543 184-184S429.461 0 328 0zm0 328c-79.403 0-144-64.596-144-144S248.596 40 328 40s144 64.596 144 144-64.597 144-144 144z" style="fill:#b9bbc1"/><path d="M180.555 331.441C173.18 324.062 163.375 320 152.937 320c-10.438 0-20.242 4.062-27.625 11.441L11.445 445.312C4.062 452.687 0 462.5 0 472.933c0 10.438 4.062 20.246 11.445 27.625C18.82 507.937 28.633 512 39.062 512c10.437 0 20.25-4.062 27.625-11.441l113.867-113.871C187.937 379.312 192 369.5 192 359.066c0-10.437-4.063-20.246-11.445-27.625z" style="fill:#9f6459"/><path d="M180.555 331.441C173.18 324.062 163.375 320 152.937 320c-10.438 0-20.242 4.062-27.625 11.441L11.445 445.312C4.062 452.687 0 462.5 0 472.933c0 10.438 4.062 20.246 11.445 27.625l169.113-169.113-.003-.004z" style="fill:#7e5c62"/><path d="M356 220c-35.29 0-64-28.71-64-64s28.71-64 64-64 64 28.71 64 64-28.71 64-64 64z" style="fill:#fff"/></svg>