<svg width="488" height="251" viewBox="0 0 488 251" fill="none" xmlns="http://www.w3.org/2000/svg">
    <g opacity=".5">
        <path opacity=".5" d="M62.086 251 .162 180.716l152.105-35.425 91.659 35.425L62.086 251z" fill="url(#eo3m0mygla)"/>
        <path opacity=".5" d="m335.585 145.288-91.659-21.348 61.272-14.272 85.62 14.272-55.233 21.348z" fill="#565352"/>
        <path opacity=".5" d="M152.268 145.288 97.033 123.94l85.622-14.272 61.272 14.272-91.659 21.348z" fill="#565352"/>
        <path opacity=".5" d="m425.765 251-181.839-70.284 91.659-35.425 152.104 35.425L425.765 251z" fill="url(#fi8y44guub)"/>
    </g>
    <path d="M242.626 120.707c2.855-12.792 5.312-26.42 6.825-34.588 1.904-10.186-13.584-12.002-19.943-12.944-.286 8.702-2.713 22.825-23.447 38.611a35.79 35.79 0 0 0-12.147 17.698c5.588 2.719 13.061 4.346 24.57 4.346 7.359 0 21.057.886 24.142-13.123z" fill="#81B64C"/>
    <path d="M281.055 111.786c-26.093-19.876-23.189-37.089-23.522-44.221h15.907a21.154 21.154 0 0 0 2.856-10.633l-18.088-11.868c11.184-8.07 13.703-23.668 5.625-34.84a24.968 24.968 0 0 0-10.889-8.526c-2.856-1.17-23.323 65.867-23.323 65.867-.076 1.54-.095 3.547-.095 5.963 0 6.656 16.393 5.706 15.517 11.535-1.314 8.797-1.58 15.482-9.168 36.613-5.111 14.265-39.239 0-41.676 7a49.399 49.399 0 0 0-2.628 16.224c0 .629 1.371 15.936 51.977 15.936 50.606 0 51.977-15.307 51.977-15.936 0-14.341-5.36-26.143-14.47-33.114z" fill="#5D9948"/>
    <path d="M253.496 67.564c2.447-6.353 2.133-10.623 2.133-10.623l-10.215-11.878c10.862-4.632 17.402-13.314 17.402-23.48a24.907 24.907 0 0 0-9.843-19.8c-12.814-5.106-27.345 1.131-32.457 13.933-4.213 10.552-.76 22.615 8.401 29.347l-18.04 11.878a21.144 21.144 0 0 0 2.809 10.632l39.81-.01z" fill="#81B64C"/>
    <path d="M242.12 4.968c14.413 2.235-6.664 18.935-13.327 18.145-6.264-.741-.181-20.237 13.327-18.145z" fill="#B2E068"/>
    <defs>
        <linearGradient id="eo3m0mygla" x1="244.692" y1="180.756" x2="217.256" y2="251.304" gradientUnits="userSpaceOnUse">
            <stop stop-color="#565352"/>
            <stop offset="1" stop-color="#565352" stop-opacity="0"/>
        </linearGradient>
        <linearGradient id="fi8y44guub" x1="244.692" y1="180.756" x2="272.127" y2="251.304" gradientUnits="userSpaceOnUse">
            <stop stop-color="#565352"/>
            <stop offset="1" stop-color="#565352" stop-opacity="0"/>
        </linearGradient>
    </defs>
</svg>
