<?xml version="1.0" standalone="no"?>
<svg version="1.0" xmlns="http://www.w3.org/2000/svg"
 width="1280.000000pt" height="1280.000000pt" viewBox="0 0 1280.000000 1280.000000"
 preserveAspectRatio="xMidYMid meet">
<g transform="translate(0.000000,1280.000000) scale(0.100000,-0.100000)"
fill="#fff" stroke="30">
<path d="M5650 11224 c-223 -47 -426 -241 -498 -474 -15 -50 -17 -183 -19
-1605 -3 -1211 -6 -1551 -16 -1557 -6 -4 -701 -8 -1542 -8 -1703 0 -1578 5
-1731 -70 -199 -97 -337 -294 -365 -523 -15 -126 -6 -1547 10 -1612 57 -222
225 -404 446 -482 l80 -28 1555 -5 1555 -5 5 -1555 c5 -1474 6 -1558 23 -1610
78 -231 253 -403 478 -467 59 -17 120 -18 864 -18 l800 0 75 23 c231 72 404
252 468 487 15 54 17 214 22 1600 l5 1540 1555 5 c1477 5 1558 6 1610 24 173
57 333 193 408 343 75 151 73 128 70 1028 l-3 800 -27 73 c-38 104 -82 174
-164 256 -78 79 -166 135 -264 169 l-65 22 -1560 5 c-858 3 -1561 6 -1562 8
-1 1 -4 696 -5 1545 -3 1439 -5 1546 -21 1602 -58 197 -187 354 -362 439 -134
66 -138 66 -992 65 -617 0 -781 -3 -833 -15z"/>
</g>
</svg>
