<svg xmlns="http://www.w3.org/2000/svg" viewBox="0 0 29 35"><path fill="#fff" d="M7.16 13.058c-.705 3.989-1.878 10.207-2.112 11.498H23.82c-.118-1.29-1.408-7.51-2.112-11.498H7.159zm.352-1.76h13.844c2.112-.704 2.816-2.112 3.05-3.754l.47-5.75c-1.056-.586-2.23-.938-3.52-.938l-.939 3.99h-3.05L16.78.386S15.49.152 14.434.152s-2.347.235-2.347.235l-.586 4.458H8.567L7.63.974c-1.29 0-2.464.352-3.52.938l.47 5.75c.117 1.524.82 2.932 2.933 3.636zm13.961 14.9H7.394c-7.04 0-7.04 5.632-7.04 5.632v2.346h28.159V31.83s0-5.631-7.04-5.631z" class="cls-1"/></svg>