<svg xmlns="http://www.w3.org/2000/svg" viewBox="0 0 25 33"><path fill="#fff" d="M.701 32.176h23.465c0-2.934-1.173-5.397-3.168-6.688-5.514-3.402-5.514-7.04-5.631-8.33V15.75h3.285c.352-.704.586-1.525.586-2.346l-3.871-2.347.234-.234a5.731 5.731 0 0 0 2.464-4.693c0-3.168-2.58-5.632-5.631-5.632-3.168 0-5.632 2.581-5.632 5.632 0 1.877.939 3.637 2.464 4.693l.235.234-3.872 2.347c0 .821.234 1.642.586 2.346h3.286v1.408c-.118 1.173-.235 4.928-5.632 8.33C1.874 26.778.7 29.243.7 32.176z" class="cls-1"/></svg>