<svg xmlns="http://www.w3.org/2000/svg" viewBox="0 0 31 38"><path fill="#fff" d="M5.718 20.633C6.891 19.46 7.008 17.7 9.473 17.7c1.994 0 3.637-1.76 4.575-2.816l.939-1.056c.352.47 1.408 1.878.938 3.52-.117.47-.352.939-.586 1.29-.47.705-1.29 1.409-2.112 2.112-1.877 1.526-5.045 3.168-5.397 6.805h17.716c.352-1.525 2.112-5.748 2.112-8.564 0-10.442-7.04-15.018-13.375-15.487L10.998.219c-.47 0-.939.469-1.056 1.056l-.352 1.76c-.352.938-.939 1.525-1.995 2.346-.938.821-1.173 1.525-1.407 2.112-.704 1.877-.822 2.933-2.112 4.81L1.143 16.41c-.704.938-.704 2.229.117 2.933 1.173.82 4.224 1.525 4.458 1.29zM23.2 29.198H9.12c-7.039 0-7.039 5.632-7.039 5.632v2.346H30.24V34.83s0-5.632-7.04-5.632z" class="cls-1"/></svg>