<svg xmlns="http://www.w3.org/2000/svg" viewBox="0 0 35 38"><path fill="#fff" d="M34.024 6.202c-.587-.586-1.29-.938-2.112-.938-.821 0-1.525.352-1.994.938-.587.587-.822 1.291-.822 2.112 0 .704.235 1.29.704 1.877l-5.162 6.923-.821-10.794c.704-.235 1.29-.587 1.642-1.056.352-.47.587-1.056.587-1.877 0-.939-.352-1.643-.939-2.347-.586-.586-1.29-.938-2.111-.938a3.206 3.206 0 0 0-3.168 3.167c0 1.056.352 1.878 1.173 2.581l-3.52 10.677-3.637-10.56c.822-.703 1.174-1.524 1.174-2.58 0-.939-.352-1.643-.94-2.23C13.493.571 12.789.22 11.85.22c-.822 0-1.525.352-2.112.938-.587.587-.939 1.408-.939 2.347 0 .821.235 1.408.587 1.877.352.47.939.821 1.643 1.056l-.704 10.794-5.28-6.922c.47-.587.704-1.173.704-1.877s-.235-1.408-.821-2.112c-.587-.587-1.29-.939-1.995-.939-.821 0-1.525.352-2.112.939C.235 6.906 0 7.61 0 8.432c0 .704.235 1.407.704 1.994.47.587 1.173.939 1.877 1.056l5.632 16.19H26.75l5.514-16.19c.822-.117 1.408-.47 1.877-1.056.47-.587.704-1.29.704-1.994.118-.939-.234-1.643-.82-2.23zm-9.62 22.996h-14.08c-7.039 0-7.039 5.632-7.039 5.632v2.346h28.158V34.83s0-5.632-7.04-5.632z" class="cls-1"/></svg>